<svg width="35" height="35" viewBox="0 0 35 35" fill="none" xmlns="http://www.w3.org/2000/svg">
<path d="M11.6667 8.94442H17.5C17.5 8.17087 17.1927 7.429 16.6457 6.88202C16.0987 6.33504 15.3569 6.02775 14.5833 6.02775C13.8098 6.02775 13.0679 6.33504 12.5209 6.88202C11.974 7.429 11.6667 8.17087 11.6667 8.94442ZM8.75 8.94442C8.75 7.39732 9.36458 5.91359 10.4585 4.81963C11.5525 3.72567 13.0362 3.11108 14.5833 3.11108C16.1304 3.11108 17.6142 3.72567 18.7081 4.81963C19.8021 5.91359 20.4167 7.39732 20.4167 8.94442H27.7083C28.0951 8.94442 28.466 9.09806 28.7395 9.37155C29.013 9.64504 29.1667 10.016 29.1667 10.4028C29.1667 10.7895 29.013 11.1605 28.7395 11.4339C28.466 11.7074 28.0951 11.8611 27.7083 11.8611H26.4221L25.13 26.9403C25.0058 28.3963 24.3395 29.7528 23.2631 30.7412C22.1867 31.7296 20.7785 32.2779 19.3171 32.2777H9.84958C8.3882 32.2779 6.97998 31.7296 5.90355 30.7412C4.82712 29.7528 4.16088 28.3963 4.03667 26.9403L2.74458 11.8611H1.45833C1.07156 11.8611 0.700626 11.7074 0.427136 11.4339C0.153645 11.1605 0 10.7895 0 10.4028C0 10.016 0.153645 9.64504 0.427136 9.37155C0.700626 9.09806 1.07156 8.94442 1.45833 8.94442H8.75ZM18.9583 17.6944C18.9583 17.3076 18.8047 16.9367 18.5312 16.6632C18.2577 16.3897 17.8868 16.2361 17.5 16.2361C17.1132 16.2361 16.7423 16.3897 16.4688 16.6632C16.1953 16.9367 16.0417 17.3076 16.0417 17.6944V23.5278C16.0417 23.9145 16.1953 24.2855 16.4688 24.5589C16.7423 24.8324 17.1132 24.9861 17.5 24.9861C17.8868 24.9861 18.2577 24.8324 18.5312 24.5589C18.8047 24.2855 18.9583 23.9145 18.9583 23.5278V17.6944ZM11.6667 16.2361C11.2799 16.2361 10.909 16.3897 10.6355 16.6632C10.362 16.9367 10.2083 17.3076 10.2083 17.6944V23.5278C10.2083 23.9145 10.362 24.2855 10.6355 24.5589C10.909 24.8324 11.2799 24.9861 11.6667 24.9861C12.0534 24.9861 12.4244 24.8324 12.6979 24.5589C12.9714 24.2855 13.125 23.9145 13.125 23.5278V17.6944C13.125 17.3076 12.9714 16.9367 12.6979 16.6632C12.4244 16.3897 12.0534 16.2361 11.6667 16.2361Z" fill="#FF8400"/>
</svg>
