<svg width="36" height="35" viewBox="0 0 36 35" fill="none" xmlns="http://www.w3.org/2000/svg">
<path d="M26.3413 16.9458C26.2713 16.7668 26.1664 16.6033 26.0326 16.4646L18.6829 9.1729C18.5459 9.03693 18.3832 8.92907 18.2041 8.85548C18.025 8.78189 17.8331 8.74402 17.6393 8.74402C17.2478 8.74402 16.8724 8.89829 16.5956 9.1729C16.4586 9.30888 16.3498 9.4703 16.2757 9.64796C16.2015 9.82561 16.1633 10.016 16.1633 10.2083C16.1633 10.5967 16.3188 10.9691 16.5956 11.2437L21.4464 16.0417H10.2896C9.89973 16.0417 9.52584 16.1953 9.25018 16.4688C8.97451 16.7423 8.81964 17.1132 8.81964 17.5C8.81964 17.8868 8.97451 18.2577 9.25018 18.5312C9.52584 18.8047 9.89973 18.9583 10.2896 18.9583H21.4464L16.5956 23.7562C16.4578 23.8918 16.3485 24.0531 16.2739 24.2308C16.1992 24.4085 16.1608 24.5991 16.1608 24.7917C16.1608 24.9842 16.1992 25.1748 16.2739 25.3525C16.3485 25.5302 16.4578 25.6915 16.5956 25.8271C16.7323 25.9638 16.8948 26.0722 17.074 26.1463C17.2531 26.2203 17.4452 26.2584 17.6393 26.2584C17.8333 26.2584 18.0254 26.2203 18.2046 26.1463C18.3837 26.0722 18.5463 25.9638 18.6829 25.8271L26.0326 18.5354C26.1664 18.3967 26.2713 18.2332 26.3413 18.0542C26.4883 17.6991 26.4883 17.3009 26.3413 16.9458Z" fill="#01358D"/>
</svg>
