<svg width="36" height="35" viewBox="0 0 36 35" fill="none" xmlns="http://www.w3.org/2000/svg">
<path d="M26.4965 16.9458C26.4271 16.7668 26.323 16.6033 26.1902 16.4646L18.8986 9.1729C18.7626 9.03693 18.6012 8.92907 18.4235 8.85548C18.2459 8.78189 18.0555 8.74402 17.8632 8.74402C17.4748 8.74402 17.1024 8.89829 16.8277 9.1729C16.6918 9.30888 16.5839 9.4703 16.5103 9.64796C16.4367 9.82561 16.3989 10.016 16.3989 10.2083C16.3989 10.5967 16.5531 10.9691 16.8277 11.2437L21.6402 16.0417H10.5715C10.1847 16.0417 9.81379 16.1953 9.5403 16.4688C9.2668 16.7423 9.11316 17.1132 9.11316 17.5C9.11316 17.8868 9.2668 18.2577 9.5403 18.5312C9.81379 18.8047 10.1847 18.9583 10.5715 18.9583H21.6402L16.8277 23.7562C16.6911 23.8918 16.5826 24.0531 16.5085 24.2308C16.4345 24.4085 16.3964 24.5991 16.3964 24.7917C16.3964 24.9842 16.4345 25.1748 16.5085 25.3525C16.5826 25.5302 16.6911 25.6915 16.8277 25.8271C16.9633 25.9638 17.1246 26.0722 17.3023 26.1463C17.48 26.2203 17.6706 26.2584 17.8632 26.2584C18.0557 26.2584 18.2463 26.2203 18.424 26.1463C18.6017 26.0722 18.763 25.9638 18.8986 25.8271L26.1902 18.5354C26.323 18.3967 26.4271 18.2332 26.4965 18.0542C26.6423 17.6991 26.6423 17.3009 26.4965 16.9458Z" fill="#01358D"/>
</svg>
