<svg width="30" height="30" viewBox="0 0 30 30" fill="none" xmlns="http://www.w3.org/2000/svg">
<path d="M28.739 4.93751C28.7392 4.71672 28.6808 4.49984 28.5699 4.30894C28.4589 4.11805 28.2994 3.95997 28.1074 3.8508C27.9155 3.74163 27.6981 3.68528 27.4773 3.68747C27.2566 3.68966 27.0403 3.75033 26.8506 3.86329C26.119 4.29877 25.3313 4.63227 24.5093 4.85454C23.3356 3.84733 21.8385 3.29617 20.2918 3.3018C18.5951 3.30375 16.9655 3.96504 15.7471 5.14603C14.5288 6.32701 13.8171 7.93525 13.7623 9.63115C10.4173 9.09773 7.3856 7.35181 5.24537 4.72633C5.11642 4.56987 4.95173 4.44672 4.7652 4.36726C4.57867 4.2878 4.37576 4.25436 4.1736 4.26976C3.97155 4.2864 3.77659 4.352 3.60559 4.4609C3.43458 4.5698 3.29268 4.71871 3.19215 4.89476C2.67656 5.79453 2.38044 6.80321 2.32783 7.8389C2.27523 8.87458 2.46763 9.90808 2.88941 10.8555L2.88697 10.8579C2.6974 10.9746 2.54096 11.1381 2.4326 11.3326C2.32425 11.5271 2.2676 11.7461 2.26807 11.9687C2.26578 12.1524 2.27679 12.336 2.30103 12.5181C2.42871 14.0909 3.12576 15.5631 4.26148 16.6587C4.18444 16.8055 4.13742 16.9661 4.12316 17.1313C4.10891 17.2964 4.12771 17.4628 4.17847 17.6206C4.67362 19.1633 5.7266 20.4657 7.13136 21.2729C5.70416 21.8248 4.16313 22.0172 2.64405 21.8332C2.36289 21.798 2.07808 21.8593 1.83636 22.0071C1.59463 22.155 1.41033 22.3806 1.31369 22.647C1.21705 22.9134 1.21381 23.2047 1.3045 23.4732C1.39519 23.7416 1.57442 23.9713 1.8128 24.1245C4.42542 25.8072 7.46739 26.7018 10.575 26.7014C14.0991 26.7411 17.5375 25.6149 20.3553 23.4982C23.1731 21.3815 25.2125 18.3929 26.156 14.9973C26.5973 13.5181 26.8227 11.9829 26.825 10.4392C26.825 10.3574 26.825 10.2732 26.8238 10.189C27.4764 9.48514 27.982 8.6581 28.3109 7.75635C28.6397 6.85459 28.7853 5.89625 28.739 4.93751ZM24.6057 8.9524C24.3993 9.19658 24.2948 9.5109 24.314 9.83009C24.3262 10.0363 24.325 10.2438 24.325 10.4392C24.3224 11.7436 24.1312 13.0408 23.7573 14.2905C22.9867 17.1798 21.2688 19.7268 18.8787 21.5238C16.4886 23.3207 13.5646 24.2636 10.575 24.2014C9.50111 24.2018 8.43091 24.0756 7.38654 23.8255C8.7183 23.3963 9.96352 22.7346 11.0645 21.8711C11.2673 21.7114 11.4157 21.4929 11.4894 21.2456C11.563 20.9982 11.5584 20.7341 11.476 20.4895C11.3936 20.2449 11.2375 20.0318 11.0292 19.8795C10.8209 19.7271 10.5706 19.6429 10.3125 19.6384C9.27355 19.6223 8.28142 19.2035 7.54517 18.4702C7.73195 18.4348 7.9175 18.3909 8.10182 18.3384C8.37184 18.2615 8.60813 18.096 8.77265 17.8686C8.93717 17.6411 9.02035 17.3649 9.00879 17.0844C8.99723 16.8039 8.89161 16.5354 8.70893 16.3222C8.52625 16.1091 8.27714 15.9636 8.00172 15.9092C7.39864 15.7901 6.83115 15.5335 6.34337 15.1594C5.85558 14.7853 5.46063 14.3038 5.18922 13.7522C5.41513 13.783 5.64249 13.8022 5.87037 13.8096C6.1411 13.8137 6.40612 13.7315 6.62709 13.5751C6.84807 13.4186 7.01356 13.1959 7.09962 12.9392C7.1821 12.6802 7.17785 12.4013 7.08753 12.1449C6.99722 11.8885 6.82575 11.6685 6.59913 11.5183C6.04932 11.152 5.59894 10.6551 5.28833 10.072C4.97772 9.48893 4.81658 8.83791 4.81935 8.17726C4.81935 8.09426 4.82178 8.01125 4.82667 7.92946C7.62825 10.5423 11.2621 12.0825 15.0879 12.2788C15.281 12.2864 15.4734 12.2501 15.6504 12.1725C15.8274 12.0948 15.9844 11.978 16.1097 11.8308C16.2336 11.6822 16.3214 11.5068 16.3661 11.3185C16.4108 11.1302 16.4111 10.9341 16.3672 10.7456C16.2957 10.4473 16.2592 10.1417 16.2585 9.83498C16.2597 8.76565 16.685 7.74044 17.4411 6.98431C18.1972 6.22818 19.2224 5.80289 20.2918 5.80176C20.8419 5.80029 21.3864 5.91289 21.8909 6.13245C22.3953 6.35201 22.8488 6.67376 23.2227 7.0774C23.3668 7.2325 23.5483 7.34814 23.7498 7.41332C23.9513 7.4785 24.1661 7.49104 24.3738 7.44976C24.8872 7.34983 25.3934 7.21525 25.8887 7.04694C25.5508 7.73815 25.1191 8.37937 24.6057 8.9524Z" fill="white"/>
</svg>
