<svg width="30" height="30" viewBox="0 0 30 30" fill="none" xmlns="http://www.w3.org/2000/svg">
<path d="M11.1074 8.96218C11.3361 8.9683 11.5897 8.98068 11.8309 9.51615C11.9909 9.87263 12.2604 10.5289 12.4799 11.0635C12.6507 11.4794 12.7912 11.8218 12.8264 11.8918C12.9067 12.0518 12.9562 12.2364 12.8511 12.4518C12.8387 12.4772 12.8271 12.5015 12.8157 12.5249C12.7315 12.6999 12.6715 12.8245 12.5296 12.9872C12.4714 13.0542 12.4106 13.1276 12.3501 13.2007C12.2437 13.3294 12.1379 13.4571 12.0473 13.5474C11.8865 13.7072 11.7195 13.8797 11.905 14.1997C12.0906 14.5197 12.7399 15.5722 13.6984 16.4215C14.7287 17.3389 15.6247 17.7255 16.0777 17.9209C16.1656 17.9589 16.2369 17.9896 16.2891 18.0156C16.6107 18.1756 16.8024 18.151 16.9879 17.9356C17.1735 17.7201 17.7917 17 18.0082 16.68C18.2185 16.36 18.4349 16.4092 18.7317 16.52C19.0285 16.6307 20.6115 17.4062 20.933 17.5662C20.9965 17.5979 21.056 17.6264 21.1111 17.6529C21.3347 17.7601 21.4869 17.833 21.5514 17.9417C21.6317 18.0771 21.6317 18.7172 21.3659 19.4681C21.0939 20.2189 19.7829 20.939 19.1892 20.9944C19.133 20.9997 19.0771 21.0065 19.0195 21.0134C18.4755 21.0792 17.785 21.1627 15.3245 20.1942C12.2928 19.0021 10.2915 16.0441 9.88691 15.4461C9.85497 15.3989 9.83297 15.3664 9.82122 15.3506L9.81437 15.3415C9.63028 15.0951 8.5041 13.5882 8.5041 12.0334C8.5041 10.5459 9.23688 9.77144 9.57111 9.4182C9.5923 9.39582 9.61187 9.37513 9.62957 9.35604C9.92633 9.03605 10.2727 8.95605 10.4891 8.95605C10.7056 8.95605 10.9219 8.95605 11.1074 8.96218Z" fill="white"/>
<path fill-rule="evenodd" clip-rule="evenodd" d="M2.73022 26.6643C2.62795 27.0355 2.96606 27.3781 3.33862 27.2809L9.0978 25.7766C10.9157 26.7613 12.9625 27.2844 15.0464 27.2844H15.0526C21.9101 27.2844 27.5 21.7269 27.5 14.8954C27.5 11.5842 26.2075 8.46993 23.8579 6.13114C21.5081 3.79246 18.3855 2.5 15.0525 2.5C8.19508 2.5 2.60513 8.05756 2.60513 14.8893C2.60435 17.0625 3.178 19.1978 4.26848 21.0806L2.73022 26.6643ZM6.07615 21.5786C6.20967 21.094 6.14296 20.576 5.89101 20.1409C4.96582 18.5435 4.47947 16.7319 4.48013 14.8893C4.48013 9.10198 9.22172 4.375 15.0525 4.375C17.8899 4.375 20.537 5.47123 22.5351 7.46006C24.531 9.44671 25.625 12.0826 25.625 14.8954C25.625 20.6824 20.8835 25.4094 15.0526 25.4094H15.0464C13.2757 25.4094 11.5358 24.9648 9.99082 24.1279C9.57267 23.9014 9.08407 23.8423 8.62395 23.9625L5.17095 24.8644L6.07615 21.5786Z" fill="white"/>
</svg>
